<svg width="32" height="32" viewBox="0 0 32 32" fill="none" xmlns="http://www.w3.org/2000/svg">
<g clip-path="url(#clip0_1284_1708)">
<path d="M0 0H32V32H0V0Z" fill="#FF0000"/>
<path d="M0 0H12.8V32H0V0Z" fill="#006600"/>
<path d="M19.156 16C19.156 19.5103 16.3103 22.356 12.8 22.356C9.28975 22.356 6.44409 19.5103 6.44409 16C6.44409 12.4897 9.28975 9.64407 12.8 9.64407C16.3103 9.64407 19.156 12.4897 19.156 16Z" fill="#FFE600"/>
<path d="M8.95363 12.3683C8.95362 12.2164 9.07669 12.0946 9.2285 12.0946H16.3712C16.523 12.0946 16.6461 12.2165 16.6461 12.3683C16.6461 13.0779 16.6461 15.0275 16.6461 16.5476C16.6459 21.9185 8.95323 22.1792 8.95361 16.5476C8.95373 14.8393 8.95366 13.0398 8.95363 12.3683Z" fill="#F4002F"/>
<path d="M10.6655 13.8336C10.6655 13.6818 10.7886 13.5593 10.9404 13.5593H14.6594C14.8112 13.5593 14.9343 13.682 14.9343 13.8338C14.9343 14.3622 14.9343 15.5518 14.9343 16.4918C14.9341 20.0289 10.6653 20.2006 10.6655 16.4918C10.6656 15.439 10.6656 14.3336 10.6655 13.8336Z" fill="#F3F3F3"/>
<path d="M11.9426 15.3642C11.9426 15.2123 12.0657 15.0896 12.2175 15.0896H13.3821C13.5339 15.0896 13.657 15.2126 13.657 15.3644C13.657 15.641 13.657 16.0766 13.657 16.4336C13.657 18.0548 11.9425 18.1335 11.9426 16.4336C11.9426 16.0379 11.9426 15.626 11.9426 15.3642Z" fill="#004CBA"/>
</g>
<defs>
<clipPath id="clip0_1284_1708">
<rect width="32" height="32" rx="8" fill="white"/>
</clipPath>
</defs>
</svg>
