<svg width="32" height="32" viewBox="0 0 32 32" fill="none" xmlns="http://www.w3.org/2000/svg">
<g clip-path="url(#clip0_1811_6703)">
<path d="M-6 0H42V10.6667H-6V0Z" fill="#FF9933"/>
<path d="M-6 10.6665H42V21.3332H-6V10.6665Z" fill="#F3F3F3"/>
<path d="M-6 21.3335H42V32.0002H-6V21.3335Z" fill="#128807"/>
<path d="M16 20.9331C18.7246 20.9331 20.9333 18.7243 20.9333 15.9997C20.9333 13.2751 18.7246 11.0664 16 11.0664C13.2754 11.0664 11.0666 13.2751 11.0666 15.9997C11.0666 18.7243 13.2754 20.9331 16 20.9331Z" fill="#000088"/>
<path d="M15.9999 20.2662C18.3563 20.2662 20.2666 18.356 20.2666 15.9996C20.2666 13.6432 18.3563 11.7329 15.9999 11.7329C13.6435 11.7329 11.7333 13.6432 11.7333 15.9996C11.7333 18.356 13.6435 20.2662 15.9999 20.2662Z" fill="#F3F3F3"/>
<path d="M15.9999 16.8527C16.4712 16.8527 16.8533 16.4706 16.8533 15.9993C16.8533 15.528 16.4712 15.146 15.9999 15.146C15.5286 15.146 15.1466 15.528 15.1466 15.9993C15.1466 16.4706 15.5286 16.8527 15.9999 16.8527Z" fill="#000088"/>
<path d="M20.2057 16.7417C20.3079 16.7551 20.4017 16.6832 20.4152 16.581C20.4286 16.4788 20.3567 16.385 20.2545 16.3715C20.1522 16.3581 20.0585 16.43 20.045 16.5322C20.0316 16.6344 20.1035 16.7282 20.2057 16.7417Z" fill="#000088"/>
<path d="M15.9999 20.2662L16.16 17.706L16.0533 16.851V16.7993H15.9466V16.851L15.84 17.706L15.9999 20.2662Z" fill="#000088"/>
<path d="M19.8704 17.8045C19.9656 17.844 20.0748 17.7988 20.1143 17.7035C20.1537 17.6083 20.1085 17.4991 20.0133 17.4596C19.918 17.4202 19.8088 17.4654 19.7694 17.5606C19.7299 17.6559 19.7752 17.7651 19.8704 17.8045Z" fill="#000088"/>
<path d="M14.8956 20.1209L15.7127 17.6896L15.831 16.8361L15.8444 16.7862L15.7413 16.7586L15.728 16.8085L15.4036 17.6067L14.8956 20.1209Z" fill="#000088"/>
<path d="M19.2713 18.7448C19.3531 18.8075 19.4703 18.7921 19.5331 18.7103C19.5958 18.6285 19.5804 18.5114 19.4986 18.4486C19.4168 18.3858 19.2996 18.4013 19.2369 18.4831C19.1741 18.5648 19.1895 18.682 19.2713 18.7448Z" fill="#000088"/>
<path d="M13.8666 19.6945L15.2852 17.5575L15.6203 16.7637L15.6462 16.719L15.5538 16.6656L15.528 16.7104L15.0081 17.3975L13.8666 19.6945Z" fill="#000088"/>
<path d="M18.4492 19.4979C18.512 19.5797 18.6292 19.5951 18.7109 19.5324C18.7927 19.4696 18.8082 19.3524 18.7454 19.2707C18.6826 19.1889 18.5655 19.1734 18.4837 19.2362C18.4019 19.299 18.3865 19.4161 18.4492 19.4979Z" fill="#000088"/>
<path d="M12.9829 19.0166L14.9063 17.3195L15.4354 16.6395L15.4719 16.603L15.3965 16.5276L15.36 16.5641L14.68 17.0933L12.9829 19.0166Z" fill="#000088"/>
<path d="M17.4603 20.0121C17.4998 20.1073 17.609 20.1526 17.7042 20.1131C17.7995 20.0737 17.8447 19.9645 17.8053 19.8692C17.7658 19.774 17.6566 19.7288 17.5614 19.7682C17.4661 19.8077 17.4209 19.9169 17.4603 20.0121Z" fill="#000088"/>
<path d="M12.3049 18.1322L14.602 16.9907L15.2891 16.4708L15.3338 16.445L15.2805 16.3526L15.2357 16.3785L14.442 16.7136L12.3049 18.1322Z" fill="#000088"/>
<path d="M16.3719 20.2533C16.3853 20.3555 16.4791 20.4275 16.5813 20.414C16.6835 20.4006 16.7555 20.3068 16.742 20.2046C16.7286 20.1024 16.6348 20.0304 16.5326 20.0439C16.4304 20.0574 16.3584 20.1511 16.3719 20.2533Z" fill="#000088"/>
<path d="M11.8787 17.1031L14.3929 16.595L15.1911 16.2707L15.2411 16.2573L15.2134 16.1543L15.1635 16.1677L14.3101 16.2859L11.8787 17.1031Z" fill="#000088"/>
<path d="M15.258 20.2052C15.2446 20.3074 15.3165 20.4012 15.4187 20.4146C15.5209 20.4281 15.6147 20.3561 15.6282 20.2539C15.6416 20.1517 15.5697 20.0579 15.4674 20.0445C15.3652 20.031 15.2715 20.103 15.258 20.2052Z" fill="#000088"/>
<path d="M11.7333 15.9996L14.2933 16.1594L15.1483 16.0527H15.2V15.946H15.1483L14.2933 15.8394L11.7333 15.9996Z" fill="#000088"/>
<path d="M14.1947 19.8699C14.1553 19.9652 14.2005 20.0744 14.2957 20.1138C14.391 20.1533 14.5002 20.108 14.5396 20.0128C14.5791 19.9175 14.5339 19.8083 14.4386 19.7689C14.3434 19.7294 14.2342 19.7747 14.1947 19.8699Z" fill="#000088"/>
<path d="M11.8787 14.895L14.3101 15.7121L15.1635 15.8304L15.2135 15.8438L15.2411 15.7407L15.1911 15.7274L14.3929 15.403L11.8787 14.895Z" fill="#000088"/>
<path d="M13.2545 19.2709C13.1918 19.3527 13.2072 19.4699 13.289 19.5326C13.3708 19.5954 13.488 19.58 13.5507 19.4982C13.6135 19.4164 13.5981 19.2992 13.5163 19.2365C13.4345 19.1737 13.3173 19.1891 13.2545 19.2709Z" fill="#000088"/>
<path d="M12.305 13.8662L14.442 15.2847L15.2358 15.6198L15.2805 15.6457L15.3339 15.5533L15.2891 15.5275L14.602 15.0076L12.305 13.8662Z" fill="#000088"/>
<path d="M12.5014 18.4488C12.4196 18.5116 12.4042 18.6287 12.4669 18.7105C12.5297 18.7923 12.6469 18.8077 12.7287 18.745C12.8105 18.6822 12.8259 18.565 12.7631 18.4833C12.7004 18.4015 12.5832 18.386 12.5014 18.4488Z" fill="#000088"/>
<path d="M12.983 12.9826L14.68 14.906L15.36 15.4351L15.3966 15.4716L15.472 15.3962L15.4354 15.3597L14.9063 14.6797L12.983 12.9826Z" fill="#000088"/>
<path d="M11.9867 17.4599C11.8914 17.4994 11.8462 17.6086 11.8856 17.7038C11.9251 17.7991 12.0343 17.8443 12.1295 17.8048C12.2248 17.7654 12.27 17.6562 12.2306 17.5609C12.1911 17.4657 12.0819 17.4205 11.9867 17.4599Z" fill="#000088"/>
<path d="M13.8667 12.3043L15.0081 14.6014L15.528 15.2885L15.5538 15.3332L15.6462 15.2799L15.6204 15.2351L15.2852 14.4414L13.8667 12.3043Z" fill="#000088"/>
<path d="M11.7454 16.3715C11.6432 16.385 11.5713 16.4787 11.5847 16.5809C11.5982 16.6832 11.692 16.7551 11.7942 16.7416C11.8964 16.7282 11.9683 16.6344 11.9549 16.5322C11.9414 16.43 11.8477 16.3581 11.7454 16.3715Z" fill="#000088"/>
<path d="M14.8957 11.8784L15.4037 14.3926L15.7281 15.1908L15.7414 15.2408L15.8445 15.2132L15.8311 15.1632L15.7128 14.3098L14.8957 11.8784Z" fill="#000088"/>
<path d="M11.7943 15.2574C11.692 15.2439 11.5983 15.3158 11.5848 15.4181C11.5714 15.5203 11.6433 15.614 11.7455 15.6275C11.8477 15.6409 11.9415 15.569 11.955 15.4668C11.9684 15.3646 11.8965 15.2708 11.7943 15.2574Z" fill="#000088"/>
<path d="M15.9999 11.7329L15.84 14.293L15.9467 15.148V15.1997H16.0534V15.148L16.16 14.293L15.9999 11.7329Z" fill="#000088"/>
<path d="M12.1296 14.1945C12.0343 14.155 11.9251 14.2003 11.8857 14.2955C11.8462 14.3908 11.8915 14.5 11.9867 14.5394C12.082 14.5789 12.1912 14.5336 12.2306 14.4384C12.2701 14.3431 12.2248 14.2339 12.1296 14.1945Z" fill="#000088"/>
<path d="M17.1043 11.8781L16.2872 14.3095L16.1689 15.1629L16.1556 15.2129L16.2586 15.2405L16.272 15.1905L16.5963 14.3923L17.1043 11.8781Z" fill="#000088"/>
<path d="M12.7286 13.2542C12.6469 13.1915 12.5297 13.2069 12.4669 13.2887C12.4042 13.3705 12.4196 13.4877 12.5014 13.5504C12.5832 13.6132 12.7003 13.5978 12.7631 13.516C12.8259 13.4342 12.8104 13.317 12.7286 13.2542Z" fill="#000088"/>
<path d="M18.1333 12.3045L16.7148 14.4415L16.3797 15.2353L16.3538 15.2801L16.4462 15.3334L16.472 15.2886L16.9919 14.6015L18.1333 12.3045Z" fill="#000088"/>
<path d="M13.5508 12.5011C13.488 12.4193 13.3708 12.4039 13.289 12.4666C13.2072 12.5294 13.1918 12.6466 13.2546 12.7284C13.3173 12.8102 13.4345 12.8256 13.5163 12.7628C13.5981 12.7001 13.6135 12.5829 13.5508 12.5011Z" fill="#000088"/>
<path d="M19.0171 12.9829L17.0937 14.68L16.5646 15.36L16.528 15.3965L16.6035 15.4719L16.64 15.4354L17.32 14.9063L19.0171 12.9829Z" fill="#000088"/>
<path d="M14.5396 11.9859C14.5002 11.8907 14.391 11.8455 14.2958 11.8849C14.2005 11.9244 14.1553 12.0336 14.1947 12.1288C14.2342 12.2241 14.3434 12.2693 14.4386 12.2298C14.5339 12.1904 14.5791 12.0812 14.5396 11.9859Z" fill="#000088"/>
<path d="M19.695 13.8664L17.398 15.0078L16.7109 15.5277L16.6662 15.5535L16.7195 15.6459L16.7642 15.6201L17.558 15.2849L19.695 13.8664Z" fill="#000088"/>
<path d="M15.6282 11.7447C15.6147 11.6425 15.521 11.5706 15.4187 11.584C15.3165 11.5975 15.2446 11.6912 15.258 11.7934C15.2715 11.8957 15.3653 11.9676 15.4675 11.9542C15.5697 11.9407 15.6416 11.8469 15.6282 11.7447Z" fill="#000088"/>
<path d="M20.1213 14.895L17.6071 15.403L16.8088 15.7273L16.7589 15.7407L16.7865 15.8437L16.8364 15.8304L17.6899 15.7121L20.1213 14.895Z" fill="#000088"/>
<path d="M16.742 11.7938C16.7554 11.6916 16.6835 11.5979 16.5813 11.5844C16.4791 11.5709 16.3853 11.6429 16.3718 11.7451C16.3584 11.8473 16.4303 11.9411 16.5325 11.9545C16.6347 11.968 16.7285 11.896 16.742 11.7938Z" fill="#000088"/>
<path d="M20.2666 15.9996L17.7066 15.8397L16.8517 15.9463H16.8V16.053H16.8517L17.7066 16.1597L20.2666 15.9996Z" fill="#000088"/>
<path d="M17.8053 12.1291C17.8447 12.0339 17.7995 11.9247 17.7042 11.8852C17.609 11.8458 17.4998 11.891 17.4603 11.9862C17.4209 12.0815 17.4661 12.1907 17.5614 12.2301C17.6566 12.2696 17.7658 12.2243 17.8053 12.1291Z" fill="#000088"/>
<path d="M20.1213 17.104L17.6899 16.2869L16.8364 16.1686L16.7865 16.1553L16.7589 16.2583L16.8088 16.2717L17.6071 16.596L20.1213 17.104Z" fill="#000088"/>
<path d="M18.7454 12.7281C18.8082 12.6463 18.7928 12.5291 18.711 12.4664C18.6292 12.4036 18.512 12.419 18.4493 12.5008C18.3865 12.5826 18.4019 12.6998 18.4837 12.7626C18.5655 12.8253 18.6827 12.8099 18.7454 12.7281Z" fill="#000088"/>
<path d="M19.695 18.1329L17.558 16.7143L16.7642 16.3792L16.7194 16.3533L16.6661 16.4457L16.7109 16.4715L17.398 16.9914L19.695 18.1329Z" fill="#000088"/>
<path d="M19.4986 13.5502C19.5804 13.4875 19.5958 13.3703 19.533 13.2885C19.4703 13.2067 19.3531 13.1913 19.2713 13.254C19.1895 13.3168 19.1741 13.434 19.2369 13.5158C19.2996 13.5976 19.4168 13.613 19.4986 13.5502Z" fill="#000088"/>
<path d="M19.017 19.0164L17.32 17.0931L16.64 16.5639L16.6034 16.5274L16.528 16.6028L16.5645 16.6393L17.0937 17.3193L19.017 19.0164Z" fill="#000088"/>
<path d="M20.0133 14.5391C20.1086 14.4997 20.1538 14.3905 20.1143 14.2952C20.0749 14.2 19.9657 14.1547 19.8704 14.1942C19.7752 14.2336 19.73 14.3428 19.7694 14.4381C19.8089 14.5333 19.9181 14.5786 20.0133 14.5391Z" fill="#000088"/>
<path d="M18.1333 19.6947L16.9919 17.3977L16.472 16.7105L16.4462 16.6658L16.3538 16.7191L16.3796 16.7639L16.7147 17.5577L18.1333 19.6947Z" fill="#000088"/>
<path d="M20.2545 15.6275C20.3568 15.6141 20.4287 15.5203 20.4152 15.4181C20.4018 15.3159 20.308 15.2439 20.2058 15.2574C20.1036 15.2708 20.0317 15.3646 20.0451 15.4668C20.0586 15.569 20.1523 15.641 20.2545 15.6275Z" fill="#000088"/>
<path d="M17.1043 20.1206L16.5962 17.6064L16.2719 16.8082L16.2585 16.7583L16.1555 16.7859L16.1689 16.8358L16.2871 17.6892L17.1043 20.1206Z" fill="#000088"/>
</g>
<defs>
<clipPath id="clip0_1811_6703">
<rect width="32" height="32" fill="white"/>
</clipPath>
</defs>
</svg>
