<svg width="32" height="32" viewBox="0 0 32 32" fill="none" xmlns="http://www.w3.org/2000/svg">
<g clip-path="url(#clip0_1284_1700)">
<path d="M-5.8667 0V32H37.8666V0H-5.8667Z" fill="#012169"/>
<path d="M-5.8667 0L37.8666 32L-5.8667 0ZM37.8666 0L-5.8667 32L37.8666 0Z" fill="black"/>
<path d="M39.3433 2.01758L20.2339 16L39.3433 29.9824L36.3901 34.0176L15.9995 19.0977L-4.39014 34.0176L-7.34326 29.9824L11.7651 16L-7.34326 2.01758L-4.39014 -2.01758L15.9995 12.9014L36.3901 -2.01758L39.3433 2.01758Z" fill="#F3F3F3"/>
<mask id="mask0_1284_1700" style="mask-type:luminance" maskUnits="userSpaceOnUse" x="-6" y="0" width="44" height="32">
<path d="M16 16H37.8666V32L16 16ZM16 16V32H-5.8667L16 16ZM16 16H-5.8667V0L16 16ZM16 16V0H37.8666L16 16Z" fill="white"/>
</mask>
<g mask="url(#mask0_1284_1700)">
<path d="M-5.8667 0L37.8666 32L-5.8667 0ZM37.8666 0L-5.8667 32L37.8666 0Z" fill="black"/>
<path d="M39.0474 1.61426L19.3862 16L39.0474 30.3857L36.686 33.6143L15.9995 18.4775L-4.68604 33.6143L-7.04736 30.3857L12.6128 16L-7.04736 1.61426L-4.68604 -1.61426L15.9995 13.5215L36.686 -1.61426L39.0474 1.61426Z" fill="#C8102E"/>
</g>
<path d="M16 0V32V0ZM-5.8667 16H37.8666H-5.8667Z" fill="black"/>
<path d="M19.4995 0V12.5H37.8666V19.5H19.4995V32H12.4995V19.5H-5.8667V12.5H12.4995V0H19.4995Z" fill="#F3F3F3"/>
<path d="M16 0V32V0ZM-5.8667 16H37.8666H-5.8667Z" fill="black"/>
<path d="M17.9995 0V14H37.8666V18H17.9995V32H13.9995V18H-5.8667V14H13.9995V0H17.9995Z" fill="#C8102E"/>
</g>
<defs>
<clipPath id="clip0_1284_1700">
<rect width="32" height="32" rx="8" fill="white"/>
</clipPath>
</defs>
</svg>
