<svg width="32" height="32" viewBox="0 0 32 32" fill="none" xmlns="http://www.w3.org/2000/svg">
<g clip-path="url(#clip0_1811_3547)">
<path d="M0 0H32V32H0V0Z" fill="#E1261C"/>
<path d="M8.49521 6.68188L11.9707 17.3744L2.8682 10.7662H14.1222L5.0197 17.3744L8.49521 6.68188Z" fill="#FFFF00"/>
<path d="M19.1173 4.86824L18.7887 8.60153L16.8584 5.38715L20.3106 6.85509L16.6564 7.69487L19.1173 4.86824Z" fill="#FFFF00"/>
<path d="M23.7012 9.25131L21.9496 12.5645L21.418 8.85298L24.03 11.5455L20.3363 10.9015L23.7012 9.25131Z" fill="#FFFF00"/>
<path d="M24.1379 15.8586L21.1871 18.1691L22.2158 14.5635L23.5022 18.0874L20.3926 15.9926L24.1379 15.8586Z" fill="#FFFF00"/>
<path d="M19.0418 18.6308L18.8683 22.3745L16.8064 19.2429L20.3165 20.5664L16.7003 21.557L19.0418 18.6308Z" fill="#FFFF00"/>
</g>
<defs>
<clipPath id="clip0_1811_3547">
<rect width="32" height="32" fill="white"/>
</clipPath>
</defs>
</svg>
