<svg width="32" height="32" viewBox="0 0 32 32" fill="none" xmlns="http://www.w3.org/2000/svg">
<g clip-path="url(#clip0_1811_7485)">
<path d="M-7.31429 0H36.5714V32H-7.31429V0Z" fill="#F3F3F3"/>
<path d="M1.54836 10.2891L5.57987 4.24178L1.54836 10.2891ZM3.06018 11.2969L7.09169 5.24966L3.06018 11.2969ZM4.572 12.3048L8.60351 6.25754L4.572 12.3048Z" fill="#050505"/>
<path d="M1.54836 10.2891L5.57987 4.24178M3.06018 11.2969L7.09169 5.24966M4.572 12.3048L8.60351 6.25754" stroke="#050505" stroke-width="1.33333"/>
<path d="M23.7217 25.0713L27.7532 19.024L23.7217 25.0713ZM25.2335 26.0792L29.265 20.0319L25.2335 26.0792ZM26.7453 27.087L30.7768 21.0398L26.7453 27.087Z" fill="#050505"/>
<path d="M23.7217 25.0713L27.7532 19.024M25.2335 26.0792L29.265 20.0319M26.7453 27.087L30.7768 21.0398" stroke="#050505" stroke-width="1.33333"/>
<path d="M24.7296 21.375L29.769 24.7346L24.7296 21.375Z" fill="#050505"/>
<path d="M24.7296 21.375L29.769 24.7346" stroke="#F3F3F3" stroke-width="0.666667"/>
<path d="M22.2099 19.6954C24.4364 16.3556 23.5339 11.8432 20.1941 9.61663C16.8543 7.39009 12.3418 8.29258 10.1153 11.6324C7.88876 14.9722 8.79125 19.4847 12.1311 21.7112C15.4709 23.9377 19.9833 23.0353 22.2099 19.6954Z" fill="#CD2E3A"/>
<path d="M10.1153 11.6324C9.58069 12.4343 9.38653 13.4158 9.57555 14.3608C9.76456 15.3059 10.3213 16.1372 11.1232 16.6718C11.9251 17.2064 12.9066 17.4006 13.8516 17.2116C14.7967 17.0225 15.628 16.4658 16.1626 15.6639C16.6972 14.862 17.5285 14.3053 18.4735 14.1163C19.4186 13.9273 20.4001 14.1214 21.202 14.656C22.0039 15.1906 22.5606 16.0219 22.7496 16.967C22.9386 17.9121 22.7445 18.8935 22.2099 19.6954C21.1406 21.2993 19.4781 22.4127 17.5879 22.7907C15.6978 23.1687 13.7349 22.7804 12.1311 21.7112C10.5272 20.642 9.41383 18.9794 9.0358 17.0893C8.65777 15.1991 9.04607 13.2362 10.1153 11.6324Z" fill="#0047A0"/>
<path d="M5.57982 27.0869L1.54831 21.0396L5.57982 27.0869ZM7.09164 26.079L3.06013 20.0318L7.09164 26.079ZM8.60346 25.0712L4.57195 19.0239L8.60346 25.0712Z" fill="#050505"/>
<path d="M5.57982 27.0869L1.54831 21.0396M7.09164 26.079L3.06013 20.0318M8.60346 25.0712L4.57195 19.0239" stroke="#050505" stroke-width="1.33333"/>
<path d="M27.7532 12.3037L23.7217 6.25643L27.7532 12.3037ZM29.265 11.2958L25.2335 5.24855L29.265 11.2958ZM30.7769 10.288L26.7453 4.24067L30.7769 10.288Z" fill="#050505"/>
<path d="M27.7532 12.3037L23.7217 6.25643M29.265 11.2958L25.2335 5.24855M30.7769 10.288L26.7453 4.24067" stroke="#050505" stroke-width="1.33333"/>
<path d="M4.31999 23.5596L5.83181 22.5517L4.31999 23.5596ZM24.7296 9.95322L26.4934 8.77736L24.7296 9.95322ZM28.0052 7.76948L29.517 6.7616L28.0052 7.76948Z" fill="#050505"/>
<path d="M4.31999 23.5596L5.83181 22.5517M24.7296 9.95322L26.4934 8.77736M28.0052 7.76948L29.517 6.7616" stroke="#F3F3F3" stroke-width="0.666667"/>
</g>
<defs>
<clipPath id="clip0_1811_7485">
<rect width="32" height="32" fill="white"/>
</clipPath>
</defs>
</svg>
