<svg width="32" height="32" viewBox="0 0 32 32" fill="none" xmlns="http://www.w3.org/2000/svg">
<g clip-path="url(#clip0_1811_13710)">
<path d="M0 0H32V32H0V0Z" fill="#E30A17"/>
<path d="M10.268 24C14.6863 24 18.268 20.4183 18.268 16C18.268 11.5817 14.6863 8 10.268 8C5.8497 8 2.26798 11.5817 2.26798 16C2.26798 20.4183 5.8497 24 10.268 24Z" fill="#F3F3F3"/>
<path d="M12.2681 22.4016C15.8027 22.4016 18.6681 19.5362 18.6681 16.0016C18.6681 12.4669 15.8027 9.60156 12.2681 9.60156C8.73346 9.60156 5.86808 12.4669 5.86808 16.0016C5.86808 19.5362 8.73346 22.4016 12.2681 22.4016Z" fill="#E30A17"/>
<path d="M16.6012 15.9996L23.8373 18.3507L19.3651 12.1953V19.8038L23.8373 13.6484L16.6012 15.9996Z" fill="#F3F3F3"/>
</g>
<defs>
<clipPath id="clip0_1811_13710">
<rect width="32" height="32" fill="white"/>
</clipPath>
</defs>
</svg>
